<svg width="252" height="67" viewBox="0 0 504 134" fill="none" xmlns="http://www.w3.org/2000/svg">
<path fill-rule="evenodd" clip-rule="evenodd" d="M61.4801 45.0186C78.3825 48.4711 95.4921 51.9659 116.125 46.4364C115.467 47.1789 113.959 48.5128 111.847 50.3802C98.6712 62.0321 62.008 94.4541 62.008 133.561C62.008 90.7081 19.9505 60.4654 4.31894 49.225C2.76078 48.1046 1.46519 47.1729 0.5 46.4364C23.712 37.3041 42.4649 41.1346 61.4801 45.0186ZM61.6034 52.615C73.828 55.1174 86.2024 57.6505 101.125 53.6427C100.649 54.1808 99.5585 55.1477 98.0312 56.5012C88.5017 64.9466 61.9853 88.4464 61.9852 116.792C61.9853 85.7313 31.5675 63.811 20.262 55.6639C19.1351 54.8518 18.1981 54.1765 17.5 53.6427C34.2879 47.0235 47.8508 49.7998 61.6034 52.615Z" fill="#304159"/>
<path d="M107.5 27.035C107.5 27.035 46.8125 11.66 14 23.0975C27.6574 9.15976 56.3805 10.3031 70.75 12.0975C82.0194 13.5047 95.25 16.91 107.5 27.035Z" fill="#ADC9D2"/>
<path d="M94.3125 12.5975C65.9501 3.64932 36.9029 5.10463 29.8343 8.59051C40.463 0.507022 58.25 -0.273742 65.4033 0.525091C74.2549 1.51358 84.807 4.94669 94.3125 12.5975Z" fill="#ADC9D2"/>
<path d="M116.563 37.1214C92.625 51.0975 31.1875 23.636 0.375 37.8475C5.1875 31.386 28.375 21.0975 75.625 28.5975C103.881 33.0825 116.563 37.1214 116.563 37.1214Z" fill="#ADC9D2"/>
<path d="M150.853 100.465V122.745H147.613V100.465H140.773V97.5446H157.733V100.465H150.853ZM183.011 97.5446V100.465H170.731V108.345H181.411V111.305H170.731V119.785H183.251V122.745H167.451V97.5446H183.011ZM202.888 97.0646C205.555 97.0646 207.675 97.878 209.248 99.5046C210.848 101.131 211.648 103.518 211.648 106.665H208.368C208.368 104.505 207.875 102.865 206.888 101.745C205.901 100.625 204.568 100.065 202.888 100.065C200.675 100.065 199.021 100.825 197.928 102.345C196.861 103.865 196.328 106.158 196.328 109.225V111.065C196.328 114.131 196.861 116.425 197.928 117.945C199.021 119.465 200.675 120.225 202.888 120.225C204.621 120.225 205.981 119.678 206.968 118.585C207.955 117.465 208.448 115.838 208.448 113.705H211.648C211.648 116.851 210.861 119.225 209.288 120.825C207.715 122.398 205.581 123.185 202.888 123.185C199.608 123.185 197.128 122.105 195.448 119.945C193.768 117.758 192.928 114.491 192.928 110.145C192.928 101.425 196.248 97.0646 202.888 97.0646ZM235.526 122.745V111.305H225.406V122.745H222.126V97.5446H225.406V108.345H235.526V97.5446H238.726V122.745H235.526ZM264.244 122.745L254.804 106.705C254.537 106.251 254.217 105.638 253.844 104.865C253.497 104.065 253.27 103.531 253.164 103.265L253.044 103.305C253.07 103.571 253.097 104.051 253.124 104.745C253.177 105.411 253.204 106.065 253.204 106.705V122.745H250.284V97.5446H253.084L262.444 113.385C262.684 113.785 262.977 114.385 263.324 115.185C263.697 115.958 263.937 116.478 264.044 116.745L264.124 116.705L264.044 113.385V97.5446H266.884V122.745H264.244ZM278.442 97.5446H281.722V122.745H278.442V97.5446ZM302.16 97.0646C304.827 97.0646 306.947 97.878 308.52 99.5046C310.12 101.131 310.92 103.518 310.92 106.665H307.64C307.64 104.505 307.147 102.865 306.16 101.745C305.173 100.625 303.84 100.065 302.16 100.065C299.947 100.065 298.293 100.825 297.2 102.345C296.133 103.865 295.6 106.158 295.6 109.225V111.065C295.6 114.131 296.133 116.425 297.2 117.945C298.293 119.465 299.947 120.225 302.16 120.225C303.893 120.225 305.253 119.678 306.24 118.585C307.227 117.465 307.72 115.838 307.72 113.705H310.92C310.92 116.851 310.133 119.225 308.56 120.825C306.987 122.398 304.853 123.185 302.16 123.185C298.88 123.185 296.4 122.105 294.72 119.945C293.04 117.758 292.2 114.491 292.2 110.145C292.2 101.425 295.52 97.0646 302.16 97.0646ZM335.478 122.745L333.758 117.145H323.758L322.038 122.745H318.798L326.838 97.5446H330.998L338.958 122.745H335.478ZM328.678 100.145C328.651 100.358 328.571 100.798 328.438 101.465C328.331 102.105 328.224 102.598 328.118 102.945L324.678 114.185H332.838L329.438 102.945C329.331 102.598 329.211 102.105 329.078 101.465C328.944 100.798 328.864 100.358 328.838 100.145H328.678ZM361.435 119.785V122.745H347.915V97.5446H351.195V119.785H361.435ZM392.218 97.0646C394.565 97.0646 396.458 97.6513 397.898 98.8246C399.365 99.998 400.098 101.785 400.098 104.185V104.625H396.778V104.065C396.778 102.811 396.352 101.838 395.498 101.145C394.672 100.425 393.605 100.065 392.298 100.065C390.885 100.065 389.752 100.358 388.898 100.945C388.045 101.531 387.618 102.411 387.618 103.585C387.618 104.438 387.858 105.145 388.338 105.705C388.845 106.238 389.458 106.678 390.178 107.025C390.925 107.345 391.938 107.718 393.218 108.145C394.845 108.678 396.152 109.185 397.138 109.665C398.125 110.145 398.965 110.851 399.658 111.785C400.378 112.718 400.738 113.945 400.738 115.465C400.738 118.131 399.965 120.091 398.418 121.345C396.872 122.571 394.792 123.185 392.178 123.185C389.672 123.185 387.618 122.571 386.018 121.345C384.445 120.118 383.658 118.211 383.658 115.625L383.698 114.865H387.098L387.058 115.625C387.058 117.118 387.512 118.265 388.418 119.065C389.325 119.838 390.525 120.225 392.018 120.225C393.725 120.225 395.032 119.865 395.938 119.145C396.872 118.425 397.338 117.385 397.338 116.025C397.338 115.118 397.085 114.371 396.578 113.785C396.098 113.198 395.485 112.745 394.738 112.425C393.992 112.078 392.965 111.691 391.658 111.265C390.058 110.731 388.765 110.225 387.778 109.745C386.792 109.265 385.952 108.558 385.258 107.625C384.565 106.665 384.218 105.411 384.218 103.865C384.218 101.625 384.965 99.9313 386.458 98.7846C387.952 97.638 389.872 97.0646 392.218 97.0646ZM425.336 122.745L423.616 117.145H413.616L411.896 122.745H408.656L416.696 97.5446H420.856L428.816 122.745H425.336ZM418.536 100.145C418.509 100.358 418.429 100.798 418.296 101.465C418.189 102.105 418.082 102.598 417.976 102.945L414.536 114.185H422.696L419.296 102.945C419.189 102.598 419.069 102.105 418.936 101.465C418.802 100.798 418.722 100.358 418.696 100.145H418.536ZM451.293 119.785V122.745H437.773V97.5446H441.053V119.785H451.293ZM476.491 97.5446V100.465H464.211V108.345H474.891V111.305H464.211V119.785H476.731V122.745H460.931V97.5446H476.491ZM494.928 97.0646C497.274 97.0646 499.168 97.6513 500.608 98.8246C502.074 99.998 502.808 101.785 502.808 104.185V104.625H499.488V104.065C499.488 102.811 499.061 101.838 498.208 101.145C497.381 100.425 496.314 100.065 495.008 100.065C493.594 100.065 492.461 100.358 491.608 100.945C490.754 101.531 490.328 102.411 490.328 103.585C490.328 104.438 490.568 105.145 491.048 105.705C491.554 106.238 492.168 106.678 492.888 107.025C493.634 107.345 494.648 107.718 495.928 108.145C497.554 108.678 498.861 109.185 499.848 109.665C500.834 110.145 501.674 110.851 502.368 111.785C503.088 112.718 503.448 113.945 503.448 115.465C503.448 118.131 502.674 120.091 501.128 121.345C499.581 122.571 497.501 123.185 494.888 123.185C492.381 123.185 490.328 122.571 488.728 121.345C487.154 120.118 486.368 118.211 486.368 115.625L486.408 114.865H489.808L489.768 115.625C489.768 117.118 490.221 118.265 491.128 119.065C492.034 119.838 493.234 120.225 494.728 120.225C496.434 120.225 497.741 119.865 498.648 119.145C499.581 118.425 500.048 117.385 500.048 116.025C500.048 115.118 499.794 114.371 499.288 113.785C498.808 113.198 498.194 112.745 497.448 112.425C496.701 112.078 495.674 111.691 494.368 111.265C492.768 110.731 491.474 110.225 490.488 109.745C489.501 109.265 488.661 108.558 487.968 107.625C487.274 106.665 486.928 105.411 486.928 103.865C486.928 101.625 487.674 99.9313 489.168 98.7846C490.661 97.638 492.581 97.0646 494.928 97.0646Z" fill="#ADC9D2"/>
<path d="M60.875 50.4365L67.875 53.1865L63.25 118.061L59.625 108.436L60.875 50.4365Z" fill="#304159"/>
<path d="M141.959 86V18.59H166.141C172.918 18.59 178.125 20.4447 181.763 24.154C185.401 27.8633 187.22 32.7497 187.22 38.813C187.22 45.1617 185.294 50.262 181.442 54.114C177.59 57.966 172.49 59.892 166.141 59.892H154.585V86H141.959ZM164.75 48.764C167.818 48.764 170.172 47.8723 171.812 46.089C173.453 44.3057 174.273 41.8803 174.273 38.813C174.273 36.031 173.417 33.8197 171.705 32.179C170.065 30.5383 167.746 29.718 164.75 29.718H154.585V48.764H164.75ZM224.021 18.59C230.655 18.59 235.755 20.3733 239.322 23.94C242.888 27.4353 244.672 32.072 244.672 37.85C244.672 41.8447 243.673 45.3757 241.676 48.443C239.678 51.439 236.932 53.6503 233.437 55.077L246.277 86H232.688L221.453 57.859H208.399V86H195.773V18.59H224.021ZM208.399 46.731H222.309C228.158 46.731 231.083 43.7707 231.083 37.85C231.083 35.282 230.369 33.2847 228.943 31.858C227.587 30.4313 225.519 29.718 222.737 29.718H208.399V46.731ZM296.989 18.59V29.718H266.601V45.875H292.602V57.11H266.601V74.765H297.631V86H253.975V18.59H296.989ZM352.3 86V43.093C352.3 41.0243 352.336 38.92 352.407 36.78C352.55 34.5687 352.657 33.035 352.728 32.179H352.3C352.158 32.607 352.015 33.3917 351.872 34.533L350.695 39.776L340.53 86H329.616L320.2 42.665C319.487 40.097 318.667 36.6017 317.739 32.179H317.418C317.49 33.035 317.561 34.6043 317.632 36.887C317.775 39.1697 317.846 41.2383 317.846 43.093V86H307.146V18.59H324.801L333.147 55.719C333.575 57.5737 334.075 60.32 334.645 63.958C335.287 67.5247 335.68 69.8787 335.822 71.02H336.25C336.393 69.8073 336.714 67.382 337.213 63.744C337.713 60.0347 338.141 57.3597 338.497 55.719L346.736 18.59H363.856V86H352.3ZM374.014 18.59H386.533V86H374.014V18.59ZM440.457 18.59V29.718H410.069V45.875H436.07V57.11H410.069V74.765H441.099V86H397.443V18.59H440.457ZM479.504 18.59C486.138 18.59 491.238 20.3733 494.805 23.94C498.372 27.4353 500.155 32.072 500.155 37.85C500.155 41.8447 499.156 45.3757 497.159 48.443C495.162 51.439 492.415 53.6503 488.92 55.077L501.76 86H488.171L476.936 57.859H463.882V86H451.256V18.59H479.504ZM463.882 46.731H477.792C483.641 46.731 486.566 43.7707 486.566 37.85C486.566 35.282 485.853 33.2847 484.426 31.858C483.071 30.4313 481.002 29.718 478.22 29.718H463.882V46.731Z" fill="#304159"/>
</svg>

