<svg width="252" height="67" viewBox="0 0 502 134" fill="none" xmlns="http://www.w3.org/2000/svg">
<path fill-rule="evenodd" clip-rule="evenodd" d="M61.4801 45.0186C78.3825 48.4711 95.4921 51.9659 116.125 46.4364C115.467 47.1789 113.959 48.5128 111.847 50.3802C98.6712 62.0321 62.008 94.4541 62.008 133.561C62.008 90.7081 19.9505 60.4654 4.31894 49.225C2.76078 48.1046 1.46519 47.1729 0.5 46.4364C23.712 37.3041 42.4649 41.1346 61.4801 45.0186ZM61.6034 52.615C73.828 55.1174 86.2024 57.6505 101.125 53.6427C100.649 54.1808 99.5585 55.1477 98.0312 56.5012C88.5017 64.9466 61.9853 88.4464 61.9852 116.792C61.9853 85.7313 31.5675 63.811 20.262 55.6639C19.1351 54.8518 18.1981 54.1765 17.5 53.6427C34.2879 47.0235 47.8508 49.7998 61.6034 52.615Z" fill="#304159"/>
<path d="M107.5 27.035C107.5 27.035 46.8125 11.66 14 23.0975C27.6574 9.15976 56.3805 10.3031 70.75 12.0975C82.0194 13.5047 95.25 16.91 107.5 27.035Z" fill="#ADC9D2"/>
<path d="M94.3125 12.5975C65.9501 3.64932 36.9029 5.10463 29.8343 8.59051C40.463 0.507022 58.25 -0.273742 65.4033 0.525091C74.2549 1.51358 84.807 4.94669 94.3125 12.5975Z" fill="#ADC9D2"/>
<path d="M116.563 37.1214C92.625 51.0975 31.1875 23.636 0.375 37.8475C5.1875 31.386 28.375 21.0975 75.625 28.5975C103.881 33.0825 116.563 37.1214 116.563 37.1214Z" fill="#ADC9D2"/>
<path d="M60.875 50.4365L67.875 53.1865L63.25 118.061L59.625 108.436L60.875 50.4365Z" fill="#304159"/>
<path d="M141.959 86V18.59H166.141C172.918 18.59 178.125 20.4447 181.763 24.154C185.401 27.8633 187.22 32.7497 187.22 38.813C187.22 45.1617 185.294 50.262 181.442 54.114C177.59 57.966 172.49 59.892 166.141 59.892H154.585V86H141.959ZM164.75 48.764C167.818 48.764 170.172 47.8723 171.812 46.089C173.453 44.3057 174.273 41.8803 174.273 38.813C174.273 36.031 173.417 33.8197 171.705 32.179C170.065 30.5383 167.746 29.718 164.75 29.718H154.585V48.764H164.75ZM224.021 18.59C230.655 18.59 235.755 20.3733 239.322 23.94C242.888 27.4353 244.672 32.072 244.672 37.85C244.672 41.8447 243.673 45.3757 241.676 48.443C239.678 51.439 236.932 53.6503 233.437 55.077L246.277 86H232.688L221.453 57.859H208.399V86H195.773V18.59H224.021ZM208.399 46.731H222.309C228.158 46.731 231.083 43.7707 231.083 37.85C231.083 35.282 230.369 33.2847 228.943 31.858C227.587 30.4313 225.519 29.718 222.737 29.718H208.399V46.731ZM296.989 18.59V29.718H266.601V45.875H292.602V57.11H266.601V74.765H297.631V86H253.975V18.59H296.989ZM352.3 86V43.093C352.3 41.0243 352.336 38.92 352.407 36.78C352.55 34.5687 352.657 33.035 352.728 32.179H352.3C352.158 32.607 352.015 33.3917 351.872 34.533L350.695 39.776L340.53 86H329.616L320.2 42.665C319.487 40.097 318.667 36.6017 317.739 32.179H317.418C317.49 33.035 317.561 34.6043 317.632 36.887C317.775 39.1697 317.846 41.2383 317.846 43.093V86H307.146V18.59H324.801L333.147 55.719C333.575 57.5737 334.075 60.32 334.645 63.958C335.287 67.5247 335.68 69.8787 335.822 71.02H336.25C336.393 69.8073 336.714 67.382 337.213 63.744C337.713 60.0347 338.141 57.3597 338.497 55.719L346.736 18.59H363.856V86H352.3ZM374.014 18.59H386.533V86H374.014V18.59ZM440.457 18.59V29.718H410.069V45.875H436.07V57.11H410.069V74.765H441.099V86H397.443V18.59H440.457ZM479.504 18.59C486.138 18.59 491.238 20.3733 494.805 23.94C498.372 27.4353 500.155 32.072 500.155 37.85C500.155 41.8447 499.156 45.3757 497.159 48.443C495.162 51.439 492.415 53.6503 488.92 55.077L501.76 86H488.171L476.936 57.859H463.882V86H451.256V18.59H479.504ZM463.882 46.731H477.792C483.641 46.731 486.566 43.7707 486.566 37.85C486.566 35.282 485.853 33.2847 484.426 31.858C483.071 30.4313 481.002 29.718 478.22 29.718H463.882V46.731Z" fill="#304159"/>
</svg>
